<svg width="64" height="57" viewBox="0 0 64 57" fill="none" xmlns="http://www.w3.org/2000/svg">
<path d="M42.3025 18.1802C41.6825 17.5802 40.8425 17.2002 39.9125 17.2002H23.6525C22.7525 17.2002 21.9025 17.5502 21.2625 18.1902C20.6325 18.8202 20.2725 19.6902 20.2725 20.5902C20.2725 21.0702 20.3725 21.5502 20.5725 21.9802C20.7125 22.2802 20.8825 22.5402 21.0925 22.7902C21.1925 22.9002 21.3225 22.9702 21.4625 22.9702H42.1225C42.2625 22.9702 42.4025 22.9002 42.4825 22.7902C42.7025 22.5402 42.8725 22.2802 43.0025 21.9802C43.2025 21.5502 43.3125 21.0702 43.3125 20.5902C43.3025 19.6502 42.9225 18.8002 42.3025 18.1802ZM21.6925 21.9802C21.4025 21.5802 21.2525 21.0902 21.2525 20.5902C21.2525 19.9502 21.5125 19.3302 21.9625 18.8902C22.4125 18.4402 23.0125 18.1802 23.6525 18.1802H39.9025C41.2325 18.1802 42.3125 19.2602 42.3125 20.5902C42.3125 21.0902 42.1525 21.5702 41.8725 21.9802H21.6925Z" fill="black"/>
<path d="M24.7227 18.8897C24.2727 19.3297 24.0127 19.9497 24.0127 20.5897C24.0127 21.0897 24.1727 21.5697 24.4527 21.9797H21.6827C21.3927 21.5797 21.2427 21.0897 21.2427 20.5897C21.2427 19.9497 21.5027 19.3297 21.9527 18.8897C22.4027 18.4397 23.0027 18.1797 23.6427 18.1797H26.4127C25.7727 18.1797 25.1727 18.4297 24.7227 18.8897Z" fill="#BF7B02"/>
<path d="M42.3222 20.5897C42.3222 21.0897 42.1622 21.5697 41.8822 21.9797H24.4522C24.1622 21.5797 24.0122 21.0897 24.0122 20.5897C24.0122 19.9497 24.2722 19.3297 24.7222 18.8897C25.1722 18.4397 25.7722 18.1797 26.4122 18.1797H39.9022C41.2322 18.1797 42.3222 19.2597 42.3222 20.5897Z" fill="#D69100"/>
<path d="M46.7225 22.96C46.1125 22.35 45.2725 21.98 44.3425 21.98H19.2325C18.3325 21.98 17.4625 22.34 16.8425 22.96C16.2125 23.59 15.8525 24.47 15.8525 25.36C15.8525 26.11 16.1125 26.84 16.5625 27.42C16.7725 27.71 17.0225 27.95 17.3225 28.16C17.4025 28.21 17.5025 28.24 17.6125 28.24H46.0025C46.1025 28.24 46.2025 28.21 46.2925 28.15C46.4625 28.03 46.6125 27.9 46.7525 27.76C46.8525 27.66 46.9525 27.55 47.0425 27.44C47.0925 27.38 47.1325 27.32 47.1725 27.26C47.5425 26.71 47.7525 26.05 47.7525 25.37C47.7225 24.43 47.3425 23.57 46.7225 22.96ZM17.7525 27.25C17.1725 26.8 16.8225 26.1 16.8225 25.36C16.8225 24.72 17.0825 24.1 17.5325 23.66C17.9725 23.22 18.5925 22.96 19.2225 22.96H44.3325C45.6625 22.96 46.7325 24.03 46.7325 25.36C46.7325 25.99 46.4725 26.61 46.0225 27.05C45.9525 27.13 45.8825 27.19 45.8025 27.25H17.7525Z" fill="black"/>
<path d="M20.5223 27.25H17.7523C17.1723 26.8 16.8223 26.1 16.8223 25.36C16.8223 24.72 17.0823 24.1 17.5323 23.66C17.9723 23.22 18.5923 22.96 19.2223 22.96H21.9923C21.3623 22.96 20.7423 23.22 20.3023 23.66C19.8523 24.1 19.5923 24.72 19.5923 25.36C19.5923 26.1 19.9423 26.8 20.5223 27.25Z" fill="#E8A205"/>
<path d="M46.7423 25.36C46.7423 25.99 46.4823 26.61 46.0323 27.05C45.9623 27.13 45.8923 27.19 45.8123 27.25H20.5223C19.9423 26.8 19.5923 26.1 19.5923 25.36C19.5923 24.72 19.8523 24.1 20.3023 23.66C20.7423 23.22 21.3623 22.96 21.9923 22.96H44.3323C45.6623 22.96 46.7423 24.03 46.7423 25.36Z" fill="#FBB302"/>
<path d="M48.3324 28.24C47.9724 27.88 47.5124 27.59 47.0124 27.43C46.6824 27.31 46.3324 27.25 45.9624 27.25H17.5924C17.2324 27.25 16.8824 27.31 16.5524 27.42C16.0524 27.59 15.5924 27.86 15.2124 28.25C14.5724 28.88 14.2124 29.76 14.2124 30.65C14.2124 31.64 14.6424 32.56 15.3724 33.19C15.5624 33.36 15.7524 33.51 15.9724 33.62C16.1224 33.7 16.3024 33.7 16.4524 33.61C16.7824 33.42 17.1824 33.31 17.5924 33.31H45.9624C46.1724 33.31 46.3724 33.34 46.5624 33.39C46.7624 33.44 46.9424 33.51 47.1124 33.61C47.1824 33.66 47.2724 33.68 47.3524 33.68C47.4424 33.68 47.5224 33.66 47.6024 33.61C47.7624 33.52 47.9124 33.43 48.0424 33.31C48.1024 33.27 48.1524 33.23 48.2024 33.18C48.2624 33.13 48.3124 33.08 48.3624 33.03C48.5724 32.82 48.7524 32.59 48.8924 32.33C49.2024 31.82 49.3524 31.24 49.3524 30.64C49.3524 29.72 48.9624 28.86 48.3324 28.24ZM17.5924 32.34C17.3424 32.34 17.1024 32.37 16.8724 32.43C16.7824 32.44 16.6924 32.46 16.6024 32.5C16.5724 32.5 16.5324 32.51 16.5024 32.53C16.4024 32.56 16.3024 32.6 16.2124 32.64C15.5724 32.19 15.1824 31.46 15.1824 30.66C15.1824 30.02 15.4424 29.4 15.8924 28.96C16.3424 28.51 16.9424 28.25 17.5824 28.25H45.9724C47.2924 28.27 48.3524 29.34 48.3524 30.66C48.3524 31.3 48.0924 31.9 47.6524 32.34L47.6424 32.35C47.5424 32.46 47.4324 32.55 47.3224 32.63C47.2524 32.6 47.1924 32.58 47.1224 32.55C47.0124 32.51 46.9124 32.48 46.8024 32.45C46.6624 32.42 46.5324 32.39 46.4024 32.37C46.2524 32.35 46.0924 32.34 45.9524 32.34H17.5924Z" fill="black"/>
<path d="M18.6724 28.9502C18.2224 29.3902 17.9624 30.0102 17.9624 30.6502C17.9624 31.2902 18.2224 31.8902 18.6524 32.3302H17.6024C17.3524 32.3302 17.1124 32.3602 16.8824 32.4202C16.7924 32.4302 16.7024 32.4502 16.6124 32.4902C16.5824 32.4902 16.5424 32.5002 16.5124 32.5202C16.4124 32.5502 16.3124 32.5902 16.2224 32.6302C15.5824 32.1802 15.1924 31.4502 15.1924 30.6502C15.1924 30.0102 15.4524 29.3902 15.9024 28.9502C16.3524 28.5002 16.9524 28.2402 17.5924 28.2402H20.3624C19.7224 28.2402 19.1224 28.5002 18.6724 28.9502Z" fill="#BF7B02"/>
<path d="M48.3624 30.6502C48.3624 31.2902 48.1024 31.8902 47.6624 32.3302L47.6524 32.3402C47.5524 32.4502 47.4424 32.5402 47.3324 32.6202C47.2624 32.5902 47.2024 32.5702 47.1324 32.5402C47.0224 32.5002 46.9224 32.4702 46.8124 32.4402C46.6724 32.4102 46.5424 32.3802 46.4124 32.3602C46.2624 32.3402 46.1024 32.3302 45.9624 32.3302H18.6524C18.2224 31.8902 17.9624 31.2902 17.9624 30.6502C17.9624 30.0102 18.2224 29.3902 18.6724 28.9502C19.1224 28.5002 19.7224 28.2402 20.3624 28.2402H45.9824C47.3024 28.2602 48.3624 29.3302 48.3624 30.6502Z" fill="#D69100"/>
<path d="M48.3324 33.3201C48.2824 33.2701 48.2424 33.2301 48.1924 33.1901C48.0124 33.0201 47.8124 32.8701 47.5924 32.7601C47.5024 32.7101 47.4124 32.6601 47.3224 32.6201C47.2524 32.5901 47.1924 32.5701 47.1224 32.5401C47.0124 32.5001 46.9124 32.4701 46.8024 32.4401C46.6624 32.4101 46.5324 32.3801 46.4024 32.3601C46.2524 32.3401 46.0924 32.3301 45.9524 32.3301H17.5924C17.3424 32.3301 17.1024 32.3601 16.8724 32.4201C16.7824 32.4301 16.6924 32.4501 16.6024 32.4901C16.5724 32.4901 16.5324 32.5001 16.5024 32.5201C16.4024 32.5501 16.3024 32.5901 16.2124 32.6301C16.1224 32.6701 16.0324 32.7101 15.9424 32.7601C15.7224 32.8901 15.5324 33.0301 15.3524 33.1901C15.2924 33.2301 15.2424 33.2801 15.1924 33.3301C14.5524 33.9601 14.1924 34.8301 14.1924 35.7301C14.1924 37.2201 15.1424 38.4801 16.4724 38.9301C16.7824 39.0301 17.0924 39.1001 17.4324 39.1101C17.4324 39.1101 17.4424 39.1101 17.4524 39.1101C17.5624 39.1101 17.6724 39.0801 17.7624 39.0101C18.1724 38.6901 18.6924 38.5101 19.2224 38.5101H44.3324C44.8624 38.5101 45.3724 38.6901 45.8024 39.0101C45.8924 39.0801 46.0124 39.1101 46.1224 39.1101C46.4424 39.1001 46.7724 39.0401 47.0824 38.9301C47.3224 38.8501 47.5324 38.7401 47.7524 38.6101C47.9724 38.4701 48.1624 38.3101 48.3524 38.1301C48.4324 38.0501 48.5124 37.9701 48.5824 37.8801V37.8701C49.0724 37.2801 49.3524 36.5101 49.3524 35.7301C49.3524 34.8101 48.9724 33.9401 48.3324 33.3201ZM19.2324 37.5201C19.0824 37.5201 18.9424 37.5301 18.8024 37.5501C18.6924 37.5601 18.5824 37.5801 18.4824 37.6101C18.4224 37.6201 18.3524 37.6401 18.2924 37.6601C18.2724 37.6601 18.2624 37.6601 18.2524 37.6701C18.1324 37.7101 18.0124 37.7501 17.9124 37.8001C17.7024 37.8801 17.5124 37.9901 17.3324 38.1201C16.1324 37.9901 15.2024 36.9701 15.2024 35.7401C15.2024 35.1001 15.4624 34.4801 15.9124 34.0401C16.0724 33.8801 16.2524 33.7401 16.4624 33.6301C16.7924 33.4401 17.1924 33.3301 17.6024 33.3301H45.9724C46.1824 33.3301 46.3824 33.3601 46.5724 33.4101C46.7724 33.4601 46.9524 33.5401 47.1224 33.6401C47.9024 34.0601 48.3724 34.8701 48.3724 35.7501C48.3724 36.3801 48.1124 37.0001 47.6624 37.4401C47.6124 37.4901 47.5624 37.5301 47.5124 37.5701C47.4324 37.6401 47.3424 37.7101 47.2524 37.7701C47.1724 37.8201 47.0924 37.8701 47.0024 37.9101C46.9124 37.9601 46.8224 38.0001 46.7224 38.0201C46.5624 38.0801 46.4024 38.1201 46.2424 38.1401L46.2324 38.1301C46.1424 38.0701 46.0424 38.0101 45.9324 37.9501C45.8024 37.8801 45.6624 37.8201 45.5324 37.7701C45.2924 37.6701 45.0424 37.6101 44.7824 37.5801C44.7124 37.5601 44.6324 37.5501 44.5524 37.5501C44.4824 37.5401 44.4024 37.5401 44.3224 37.5401H19.2324V37.5201Z" fill="black"/>
<path d="M18.6726 34.0301C18.2226 34.4701 17.9626 35.0901 17.9626 35.7301C17.9626 36.4601 18.2826 37.1201 18.8026 37.5501C18.6926 37.5601 18.5826 37.5801 18.4826 37.6101C18.4226 37.6201 18.3526 37.6401 18.2926 37.6601C18.2726 37.6601 18.2626 37.6601 18.2526 37.6701C18.1326 37.7001 18.0126 37.7501 17.9126 37.8001C17.7026 37.8801 17.5126 37.9901 17.3326 38.1201C16.1326 37.9901 15.2026 36.9701 15.2026 35.7401C15.2026 35.1001 15.4626 34.4801 15.9126 34.0401C16.0726 33.8801 16.2526 33.7401 16.4626 33.6301C16.7926 33.4401 17.1926 33.3301 17.6026 33.3301H20.3726C19.9626 33.3301 19.5626 33.4401 19.2326 33.6301C19.0126 33.7301 18.8226 33.8701 18.6726 34.0301Z" fill="#E8A205"/>
<path d="M48.3624 35.7303C48.3624 36.3603 48.1024 36.9803 47.6524 37.4203C47.6024 37.4703 47.5524 37.5103 47.5024 37.5503C47.4224 37.6203 47.3324 37.6903 47.2424 37.7503C47.1624 37.8003 47.0824 37.8503 46.9924 37.8903C46.9024 37.9403 46.8124 37.9803 46.7124 38.0003C46.5524 38.0603 46.3924 38.1003 46.2324 38.1203L46.2224 38.1103C46.1324 38.0503 46.0324 37.9903 45.9224 37.9303C45.7924 37.8603 45.6524 37.8003 45.5224 37.7503C45.2824 37.6503 45.0324 37.5903 44.7724 37.5603C44.7024 37.5403 44.6224 37.5303 44.5424 37.5303C44.4724 37.5203 44.3924 37.5203 44.3124 37.5203H19.2324C19.0824 37.5203 18.9424 37.5303 18.8024 37.5503C18.2924 37.1203 17.9624 36.4603 17.9624 35.7303C17.9624 35.0903 18.2224 34.4703 18.6724 34.0303C18.8324 33.8703 19.0124 33.7303 19.2224 33.6203C19.5524 33.4303 19.9524 33.3203 20.3624 33.3203H45.9624C46.1724 33.3203 46.3724 33.3503 46.5624 33.4003C46.7624 33.4503 46.9424 33.5303 47.1124 33.6303C47.8924 34.0503 48.3624 34.8603 48.3624 35.7303Z" fill="#FBB302"/>
<path d="M47.7225 40.91C47.7225 41.81 47.3725 42.66 46.7425 43.3L46.7325 43.31C46.0825 43.95 45.2325 44.29 44.3425 44.29H41.9725C41.7025 44.29 41.4825 44.07 41.4825 43.8C41.4825 43.56 41.6625 43.37 41.8725 43.32C41.9025 43.31 41.9425 43.31 41.9725 43.31H44.3425C44.9925 43.31 45.5825 43.07 46.0425 42.61C46.4925 42.15 46.7425 41.56 46.7425 40.91C46.7425 40.16 46.4025 39.46 45.8025 39.01C45.3825 38.69 44.8625 38.51 44.3325 38.51H19.2325C18.7025 38.51 18.1925 38.69 17.7725 39.01C17.6525 39.1 17.5925 39.15 17.5525 39.2C17.0725 39.67 16.8225 40.27 16.8225 40.91C16.8225 42.24 17.9025 43.31 19.2225 43.31H21.5825C21.6125 43.31 21.6525 43.31 21.6825 43.32C21.9025 43.37 22.0725 43.57 22.0725 43.8C22.0725 44.08 21.8425 44.29 21.5825 44.29H19.2225C17.3525 44.29 15.8325 42.77 15.8325 40.9C15.8325 40.18 16.0625 39.49 16.4825 38.92C16.5825 38.77 16.7125 38.63 16.8325 38.51C16.8925 38.44 16.9825 38.36 17.0725 38.28C17.0825 38.28 17.1525 38.22 17.1525 38.22C17.2025 38.18 17.2525 38.14 17.3125 38.1C17.4925 37.97 17.6825 37.86 17.8925 37.78C18.0025 37.73 18.1225 37.69 18.2325 37.65C18.2425 37.64 18.2525 37.64 18.2725 37.64C18.3325 37.62 18.4025 37.6 18.4625 37.59C18.5725 37.56 18.6825 37.54 18.7825 37.53C18.9325 37.51 19.0725 37.5 19.2125 37.5H44.3225C44.4025 37.5 44.4825 37.5 44.5525 37.51C44.6325 37.51 44.7125 37.52 44.7825 37.54C45.0425 37.57 45.2925 37.63 45.5325 37.73C45.6725 37.78 45.8125 37.84 45.9325 37.91C46.0425 37.97 46.1425 38.03 46.2325 38.09L46.2425 38.1C46.2925 38.14 46.3525 38.18 46.4025 38.22C46.5125 38.3 46.6125 38.39 46.7125 38.5C46.8525 38.62 46.9825 38.77 47.0825 38.92C47.4925 39.49 47.7225 40.18 47.7225 40.91Z" fill="black"/>
<path d="M43.9826 43.9001C43.9526 44.0401 43.9226 44.1701 43.8726 44.2901V44.3001C43.6126 45.0901 43.1126 45.7901 42.4226 46.3501C42.3026 46.4501 42.1726 46.5401 42.0526 46.6301C41.0726 47.3001 39.8426 47.6601 38.5626 47.6601H25.0026C22.4826 47.6601 20.3226 46.2601 19.6826 44.2901C19.6426 44.1601 19.6126 44.0301 19.5826 43.9101C19.5226 43.6401 19.6926 43.3801 19.9526 43.3201C19.9826 43.3101 20.0226 43.3101 20.0526 43.3101C20.2926 43.3101 20.4926 43.4701 20.5426 43.7001C20.5826 43.9101 20.6526 44.1001 20.7426 44.2901C21.3726 45.6901 23.0826 46.6701 24.9926 46.6701H38.5626C39.7826 46.6701 40.9326 46.2901 41.8026 45.5901C42.2626 45.2301 42.6126 44.7801 42.8126 44.3001L42.8226 44.2901C42.9026 44.1001 42.9726 43.9001 43.0126 43.7001C43.0526 43.4901 43.2226 43.3401 43.4226 43.3201C43.4426 43.3101 43.4626 43.3101 43.4826 43.3101C43.5226 43.3101 43.5526 43.3101 43.5926 43.3201C43.8626 43.3801 44.0326 43.6401 43.9826 43.9001ZM22.4426 10.9601C22.2826 10.7401 22.3326 10.4401 22.5626 10.2801L22.6426 10.2201L19.1326 11.0301H19.1226L16.5126 12.6101C16.4826 12.6401 16.4426 12.6601 16.4026 12.6701L22.8426 11.1801C22.6826 11.1801 22.5326 11.1001 22.4426 10.9601ZM22.4426 10.9601C22.2826 10.7401 22.3326 10.4401 22.5626 10.2801L22.6426 10.2201L19.1326 11.0301H19.1226L16.5126 12.6101C16.4826 12.6401 16.4426 12.6601 16.4026 12.6701L22.8426 11.1801C22.6826 11.1801 22.5326 11.1001 22.4426 10.9601ZM22.4426 10.9601C22.2826 10.7401 22.3326 10.4401 22.5626 10.2801L22.6426 10.2201L19.1326 11.0301H19.1226L16.5126 12.6101C16.4826 12.6401 16.4426 12.6601 16.4026 12.6701L22.8426 11.1801C22.6826 11.1801 22.5326 11.1001 22.4426 10.9601ZM22.4426 10.9601C22.2826 10.7401 22.3326 10.4401 22.5626 10.2801L22.6426 10.2201L19.1326 11.0301H19.1226L16.5126 12.6101C16.4826 12.6401 16.4426 12.6601 16.4026 12.6701L22.8426 11.1801C22.6826 11.1801 22.5326 11.1001 22.4426 10.9601ZM22.4426 10.9601C22.2826 10.7401 22.3326 10.4401 22.5626 10.2801L22.6426 10.2201L19.1326 11.0301H19.1226L16.5126 12.6101C16.4826 12.6401 16.4426 12.6601 16.4026 12.6701L22.8426 11.1801C22.6826 11.1801 22.5326 11.1001 22.4426 10.9601ZM22.4426 10.9601C22.2826 10.7401 22.3326 10.4401 22.5626 10.2801L22.6426 10.2201L19.1326 11.0301H19.1226L16.5126 12.6101C16.4826 12.6401 16.4426 12.6601 16.4026 12.6701L22.8426 11.1801C22.6826 11.1801 22.5326 11.1001 22.4426 10.9601ZM22.4426 10.9601C22.2826 10.7401 22.3326 10.4401 22.5626 10.2801L22.6426 10.2201L19.1326 11.0301H19.1226L16.5126 12.6101C16.4826 12.6401 16.4426 12.6601 16.4026 12.6701L22.8426 11.1801C22.6826 11.1801 22.5326 11.1001 22.4426 10.9601ZM22.4426 10.9601C22.2826 10.7401 22.3326 10.4401 22.5626 10.2801L22.6426 10.2201L19.1326 11.0301H19.1226L16.5126 12.6101C16.4826 12.6401 16.4426 12.6601 16.4026 12.6701L22.8426 11.1801C22.6826 11.1801 22.5326 11.1001 22.4426 10.9601ZM22.4426 10.9601C22.2826 10.7401 22.3326 10.4401 22.5626 10.2801L22.6426 10.2201L19.1326 11.0301H19.1226L16.5126 12.6101C16.4826 12.6401 16.4426 12.6601 16.4026 12.6701L22.8426 11.1801C22.6826 11.1801 22.5326 11.1001 22.4426 10.9601ZM22.4426 10.9601C22.2826 10.7401 22.3326 10.4401 22.5626 10.2801L22.6426 10.2201L19.1326 11.0301H19.1226L16.5126 12.6101C16.4826 12.6401 16.4426 12.6601 16.4026 12.6701L22.8426 11.1801C22.6826 11.1801 22.5326 11.1001 22.4426 10.9601ZM22.4426 10.9601C22.2826 10.7401 22.3326 10.4401 22.5626 10.2801L22.6426 10.2201L19.1326 11.0301H19.1226L16.5126 12.6101C16.4826 12.6401 16.4426 12.6601 16.4026 12.6701L22.8426 11.1801C22.6826 11.1801 22.5326 11.1001 22.4426 10.9601ZM53.7726 4.9101C53.7626 4.8501 53.7526 4.8001 53.7426 4.7401C53.5226 3.8601 52.6326 3.3201 51.7426 3.5201L25.2026 9.6201H25.1926L22.6426 10.2101H22.6326L19.1226 11.0201H19.1126L16.0426 11.7301H16.0226L11.1226 12.8601C10.4526 13.0101 9.89256 13.4101 9.53256 14.0001C9.18256 14.5801 9.07256 15.2601 9.23256 15.9201C9.40256 16.5901 9.81256 17.1401 10.4026 17.4901C10.7926 17.7201 11.2326 17.8301 11.6726 17.8301C11.8926 17.8301 12.1126 17.8001 12.3326 17.7401L31.3826 12.5301L32.4526 12.2301H32.4626L52.5426 6.7501C52.7226 6.7001 52.8726 6.6301 53.0126 6.5301C53.4826 6.2201 53.7726 5.6801 53.7726 5.1201C53.7926 5.0701 53.7826 4.9901 53.7726 4.9101ZM12.0926 16.8001C11.6926 16.9101 11.2726 16.8601 10.9126 16.6401C10.5626 16.4301 10.3026 16.1001 10.2026 15.6901C10.1026 15.2901 10.1626 14.8701 10.3826 14.5201C10.6026 14.1701 10.9426 13.9201 11.3426 13.8201L16.3126 12.6801C16.3426 12.6801 16.3726 12.6701 16.4026 12.6601L22.8426 11.1701C22.9026 11.1701 22.9626 11.1501 23.0226 11.1401L51.9726 4.4801C52.0226 4.4701 52.0726 4.4601 52.1226 4.4601C52.4326 4.4601 52.7126 4.6701 52.7926 4.9801C52.8026 5.0301 52.8126 5.0801 52.8126 5.1301C52.8126 5.4401 52.6126 5.7201 52.3126 5.8101L31.4426 11.5101L12.5826 16.6601L12.0926 16.8001Z" fill="black"/>
<path d="M52.8026 5.13996L25.0726 11.51C25.0126 11.52 24.9526 11.54 24.8926 11.54L18.4526 13.03C18.4226 13.04 18.3926 13.05 18.3626 13.05L13.3926 14.19C12.9926 14.29 12.6426 14.53 12.4326 14.89C12.2126 15.24 12.1526 15.66 12.2526 16.06C12.3126 16.29 12.4226 16.49 12.5726 16.67L12.0926 16.8C11.6926 16.91 11.2726 16.86 10.9126 16.64C10.5626 16.43 10.3026 16.1 10.2026 15.69C10.1026 15.29 10.1626 14.87 10.3826 14.52C10.6026 14.17 10.9426 13.92 11.3426 13.82L16.3126 12.68C16.3426 12.68 16.3726 12.67 16.4026 12.66L22.8426 11.17C22.9026 11.17 22.9626 11.15 23.0226 11.14L51.9726 4.47996C52.0226 4.46996 52.0726 4.45996 52.1226 4.45996C52.4326 4.45996 52.7126 4.66996 52.7926 4.97996C52.7926 5.03996 52.8026 5.08996 52.8026 5.13996Z" fill="#7F4C3B"/>
<path d="M52.8024 5.13965C52.8024 5.44965 52.6024 5.72965 52.3024 5.81965L31.4324 11.5196L12.5724 16.6696C12.4224 16.4896 12.3124 16.2896 12.2524 16.0596C12.1524 15.6596 12.2124 15.2396 12.4324 14.8896C12.6524 14.5396 12.9924 14.2896 13.3924 14.1896L18.3624 13.0496C18.3924 13.0496 18.4224 13.0396 18.4524 13.0296L24.8924 11.5396C24.9524 11.5396 25.0124 11.5196 25.0724 11.5096L52.8024 5.13965Z" fill="#915C46"/>
<path d="M32.2427 18.1797C32.1627 18.1797 32.0727 18.1597 32.0027 18.1197C31.7627 17.9897 31.6827 17.6897 31.8127 17.4497C32.9727 15.3997 32.7727 13.6997 31.2127 12.3797C31.0027 12.1997 30.9827 11.8897 31.1527 11.6897C31.3227 11.4797 31.6427 11.4597 31.8427 11.6297C32.9527 12.5697 34.5327 14.6297 32.6627 17.9297C32.5827 18.0897 32.4127 18.1797 32.2427 18.1797Z" fill="black"/>
<path d="M28.3323 6.21973L22.6423 10.2197H22.6323L19.1323 11.0297L26.3323 6.68973L28.3323 6.21973Z" fill="#915C46"/>
<path d="M30.9623 5.58996L25.2023 9.62996H25.1923L23.1123 11.09C23.0823 11.11 23.0523 11.13 23.0123 11.15C22.9523 11.16 22.8923 11.18 22.8323 11.18C22.6723 11.18 22.5223 11.1 22.4323 10.96C22.2723 10.74 22.3223 10.44 22.5523 10.28L22.6323 10.22H22.6423L28.3323 6.21996L26.3223 6.67996L19.1223 11.02H19.1123L16.5023 12.6C16.4723 12.63 16.4323 12.65 16.3923 12.66C16.3623 12.67 16.3323 12.68 16.3023 12.68C16.2723 12.69 16.2523 12.69 16.2223 12.69C16.1023 12.69 15.9923 12.64 15.9023 12.56C15.7023 12.38 15.6723 12.08 15.8623 11.87L15.8723 11.86C15.9023 11.82 15.9423 11.79 15.9823 11.76L16.0223 11.73H16.0423L25.8823 5.78996C25.9323 5.75996 25.9823 5.73996 26.0323 5.72996L30.5723 4.69996C30.8023 4.63996 31.0323 4.75996 31.1323 4.97996C31.2323 5.19996 31.1523 5.45996 30.9623 5.58996Z" fill="black"/>
<path d="M10.9022 48.01C10.8722 48.12 10.8422 48.23 10.8022 48.33C10.7522 48.48 10.6222 48.6 10.4722 48.64C10.3122 48.68 10.1522 48.65 10.0322 48.54C9.80223 48.35 9.62223 48.2 9.45223 48.09L9.27223 47.96C9.15223 47.88 9.07223 47.85 9.00223 47.86C8.90223 47.87 8.83223 47.91 8.76223 48.03V48.04C8.76223 48.05 8.75223 48.05 8.75223 48.06C8.75223 48.06 8.75223 48.07 8.74223 48.07C8.67223 48.2 8.64223 48.37 8.62223 48.47C8.60223 48.63 8.60223 48.8 8.62223 49.01C8.66223 49.37 8.71223 49.73 8.74223 50.05C8.80223 50.63 8.85223 51.12 8.88223 51.55V51.6C8.88223 51.69 8.86223 51.77 8.82223 51.84L7.99223 53.23V53.24L7.27223 54.47C7.12223 54.73 6.91223 54.94 6.66223 55.08L4.55223 56.25C4.34223 56.36 4.13223 56.42 3.91223 56.42C3.71223 56.42 3.52223 56.37 3.35223 56.27C3.00223 56.06 2.78223 55.66 2.78223 55.21V52.81C2.78223 52.53 2.86223 52.24 3.02223 51.97L3.74223 50.73H3.75223L4.56223 49.34C4.60223 49.27 4.65223 49.21 4.72223 49.17H4.73223C4.75223 49.16 4.77223 49.15 4.79223 49.14C4.82223 49.13 4.84223 49.12 4.87223 49.11C4.99223 49.07 5.13223 49.09 5.24223 49.16C5.48223 49.3 5.56223 49.6 5.42223 49.84L5.34223 49.97L3.87223 52.46C3.80223 52.58 3.77223 52.7 3.77223 52.8V55.21C3.77223 55.32 3.80223 55.4 3.85223 55.43C3.91223 55.46 3.99223 55.45 4.08223 55.39L4.15223 55.35L6.19223 54.23C6.28223 54.18 6.38223 54.08 6.44223 53.97L7.90223 51.48C7.87223 51.11 7.83223 50.66 7.78223 50.17C7.76223 49.97 7.73223 49.76 7.71223 49.54C7.69223 49.41 7.68223 49.27 7.66223 49.13C7.65223 49.08 7.65223 49.03 7.65223 48.98C7.62223 48.75 7.63223 48.54 7.66223 48.33C7.70223 48.12 7.76223 47.82 7.92223 47.54C7.93223 47.53 7.93223 47.52 7.94223 47.51C8.17223 47.16 8.49223 46.94 8.88223 46.89H8.89223C9.21223 46.85 9.52223 46.93 9.81223 47.12L10.0422 47.29C10.0522 47.18 10.0422 47.06 10.0322 46.95C9.99223 46.68 9.90223 46.45 9.76223 46.25C9.67223 46.13 9.56223 46.03 9.44223 45.95C9.33223 45.89 9.21223 45.84 9.08223 45.82C9.04223 45.82 9.00223 45.81 8.96223 45.81C8.65223 45.78 8.31223 45.88 8.00223 46.08H7.95223C7.74223 46.21 7.56223 46.37 7.39223 46.56C7.25223 46.71 7.04223 46.76 6.85223 46.69C6.80223 46.67 6.75223 46.64 6.70223 46.6C6.49223 46.42 6.47223 46.11 6.65223 45.9C6.72223 45.82 6.80223 45.74 6.88223 45.66C7.42223 45.15 8.07223 44.85 8.71223 44.82C8.84223 44.81 8.98223 44.81 9.10223 44.83C9.31223 44.86 9.50223 44.91 9.69223 45C9.77223 45.03 9.84223 45.06 9.91223 45.1C9.98223 45.14 10.0422 45.18 10.1022 45.24C10.2722 45.35 10.4122 45.5 10.5322 45.66C10.6122 45.77 10.6722 45.88 10.7322 46C10.8622 46.25 10.9422 46.52 10.9822 46.81C11.0222 47.2 10.9922 47.61 10.9022 48.01Z" fill="black"/>
<path d="M7.90268 47.54C7.82268 47.68 7.68268 47.8 7.59268 47.86C7.45268 47.96 7.30268 48.05 7.12268 48.13L6.15268 48.54C5.65268 48.75 5.22268 48.93 4.86268 49.11C4.98268 49.07 5.12268 49.09 5.23268 49.16C5.47268 49.3 5.55268 49.6 5.41268 49.84L5.33268 49.97C5.67268 49.81 6.08268 49.64 6.52268 49.45L7.50268 49.04C7.54268 49.02 7.59268 49 7.63268 48.98C7.60268 48.75 7.61268 48.54 7.64268 48.33C7.69268 48.12 7.75268 47.81 7.90268 47.54ZM7.90268 47.54C7.82268 47.68 7.68268 47.8 7.59268 47.86C7.45268 47.96 7.30268 48.05 7.12268 48.13L6.15268 48.54C5.65268 48.75 5.22268 48.93 4.86268 49.11C4.98268 49.07 5.12268 49.09 5.23268 49.16C5.47268 49.3 5.55268 49.6 5.41268 49.84L5.33268 49.97C5.67268 49.81 6.08268 49.64 6.52268 49.45L7.50268 49.04C7.54268 49.02 7.59268 49 7.63268 48.98C7.60268 48.75 7.61268 48.54 7.64268 48.33C7.69268 48.12 7.75268 47.81 7.90268 47.54ZM7.90268 47.54C7.82268 47.68 7.68268 47.8 7.59268 47.86C7.45268 47.96 7.30268 48.05 7.12268 48.13L6.15268 48.54C5.65268 48.75 5.22268 48.93 4.86268 49.11C4.98268 49.07 5.12268 49.09 5.23268 49.16C5.47268 49.3 5.55268 49.6 5.41268 49.84L5.33268 49.97C5.67268 49.81 6.08268 49.64 6.52268 49.45L7.50268 49.04C7.54268 49.02 7.59268 49 7.63268 48.98C7.60268 48.75 7.61268 48.54 7.64268 48.33C7.69268 48.12 7.75268 47.81 7.90268 47.54ZM7.90268 47.54C7.82268 47.68 7.68268 47.8 7.59268 47.86C7.45268 47.96 7.30268 48.05 7.12268 48.13L6.15268 48.54C5.65268 48.75 5.22268 48.93 4.86268 49.11C4.98268 49.07 5.12268 49.09 5.23268 49.16C5.47268 49.3 5.55268 49.6 5.41268 49.84L5.33268 49.97C5.67268 49.81 6.08268 49.64 6.52268 49.45L7.50268 49.04C7.54268 49.02 7.59268 49 7.63268 48.98C7.60268 48.75 7.61268 48.54 7.64268 48.33C7.69268 48.12 7.75268 47.81 7.90268 47.54ZM7.90268 47.54C7.82268 47.68 7.68268 47.8 7.59268 47.86C7.45268 47.96 7.30268 48.05 7.12268 48.13L6.15268 48.54C5.65268 48.75 5.22268 48.93 4.86268 49.11C4.98268 49.07 5.12268 49.09 5.23268 49.16C5.47268 49.3 5.55268 49.6 5.41268 49.84L5.33268 49.97C5.67268 49.81 6.08268 49.64 6.52268 49.45L7.50268 49.04C7.54268 49.02 7.59268 49 7.63268 48.98C7.60268 48.75 7.61268 48.54 7.64268 48.33C7.69268 48.12 7.75268 47.81 7.90268 47.54ZM7.90268 47.54C7.82268 47.68 7.68268 47.8 7.59268 47.86C7.45268 47.96 7.30268 48.05 7.12268 48.13L6.15268 48.54C5.65268 48.75 5.22268 48.93 4.86268 49.11C4.98268 49.07 5.12268 49.09 5.23268 49.16C5.47268 49.3 5.55268 49.6 5.41268 49.84L5.33268 49.97C5.67268 49.81 6.08268 49.64 6.52268 49.45L7.50268 49.04C7.54268 49.02 7.59268 49 7.63268 48.98C7.60268 48.75 7.61268 48.54 7.64268 48.33C7.69268 48.12 7.75268 47.81 7.90268 47.54ZM7.90268 47.54C7.82268 47.68 7.68268 47.8 7.59268 47.86C7.45268 47.96 7.30268 48.05 7.12268 48.13L6.15268 48.54C5.65268 48.75 5.22268 48.93 4.86268 49.11C4.98268 49.07 5.12268 49.09 5.23268 49.16C5.47268 49.3 5.55268 49.6 5.41268 49.84L5.33268 49.97C5.67268 49.81 6.08268 49.64 6.52268 49.45L7.50268 49.04C7.54268 49.02 7.59268 49 7.63268 48.98C7.60268 48.75 7.61268 48.54 7.64268 48.33C7.69268 48.12 7.75268 47.81 7.90268 47.54ZM8.86268 46.89C8.73268 46.58 8.51268 46.35 8.21268 46.2C8.13268 46.16 8.05268 46.12 7.96268 46.07H7.95268C7.74268 45.98 7.49268 45.86 7.19268 45.76C7.09268 45.72 6.98268 45.68 6.87268 45.65C5.73268 45.27 4.16268 44.98 2.67268 45.46C1.09268 45.98 0.44268 47.08 0.18268 47.93C-0.17732 49.03 0.00268042 50.11 0.65268 50.73C0.92268 50.99 1.35268 51.27 2.02268 51.27C2.17268 51.27 2.33268 51.25 2.49268 51.22C2.81268 51.17 3.12268 51.04 3.47268 50.86C3.53268 50.83 3.62268 50.78 3.73268 50.72H3.74268C4.03268 50.57 4.50268 50.35 5.18268 50.03C5.23268 50.01 5.28268 49.98 5.33268 49.96C5.67268 49.8 6.08268 49.63 6.52268 49.44L7.50268 49.03C7.54268 49.01 7.59268 48.99 7.63268 48.97C7.84268 48.88 8.01268 48.76 8.19268 48.64C8.35268 48.51 8.56268 48.32 8.73268 48.07C8.74268 48.07 8.74268 48.06 8.74268 48.06C8.74268 48.05 8.75268 48.05 8.75268 48.04V48.03C8.98268 47.66 9.01268 47.27 8.86268 46.89ZM7.91268 47.54C7.82268 47.68 7.68268 47.8 7.59268 47.86C7.45268 47.96 7.30268 48.05 7.12268 48.13L6.15268 48.54C5.65268 48.75 5.22268 48.93 4.86268 49.11C4.83268 49.12 4.81268 49.13 4.78268 49.14C4.76268 49.15 4.74268 49.16 4.72268 49.17H4.71268C3.80268 49.57 3.28268 49.84 3.01268 50C2.75268 50.14 2.53268 50.23 2.32268 50.27C1.90268 50.35 1.58268 50.27 1.34268 50.03C0.98268 49.68 0.89268 48.98 1.12268 48.24C1.41268 47.33 2.04268 46.72 2.98268 46.42C3.43268 46.26 3.91268 46.2 4.38268 46.2C5.30268 46.2 6.17268 46.44 6.85268 46.68L6.86268 46.69C7.13268 46.78 7.35268 46.88 7.54268 46.97C7.63268 47.01 7.71268 47.05 7.77268 47.08C7.86268 47.13 7.92268 47.19 7.95268 47.26C7.98268 47.32 7.99268 47.4 7.93268 47.52C7.92268 47.52 7.92268 47.53 7.91268 47.54ZM7.90268 47.54C7.82268 47.68 7.68268 47.8 7.59268 47.86C7.45268 47.96 7.30268 48.05 7.12268 48.13L6.15268 48.54C5.65268 48.75 5.22268 48.93 4.86268 49.11C4.98268 49.07 5.12268 49.09 5.23268 49.16C5.47268 49.3 5.55268 49.6 5.41268 49.84L5.33268 49.97C5.67268 49.81 6.08268 49.64 6.52268 49.45L7.50268 49.04C7.54268 49.02 7.59268 49 7.63268 48.98C7.60268 48.75 7.61268 48.54 7.64268 48.33C7.69268 48.12 7.75268 47.81 7.90268 47.54ZM7.90268 47.54C7.82268 47.68 7.68268 47.8 7.59268 47.86C7.45268 47.96 7.30268 48.05 7.12268 48.13L6.15268 48.54C5.65268 48.75 5.22268 48.93 4.86268 49.11C4.98268 49.07 5.12268 49.09 5.23268 49.16C5.47268 49.3 5.55268 49.6 5.41268 49.84L5.33268 49.97C5.67268 49.81 6.08268 49.64 6.52268 49.45L7.50268 49.04C7.54268 49.02 7.59268 49 7.63268 48.98C7.60268 48.75 7.61268 48.54 7.64268 48.33C7.69268 48.12 7.75268 47.81 7.90268 47.54ZM7.90268 47.54C7.82268 47.68 7.68268 47.8 7.59268 47.86C7.45268 47.96 7.30268 48.05 7.12268 48.13L6.15268 48.54C5.65268 48.75 5.22268 48.93 4.86268 49.11C4.98268 49.07 5.12268 49.09 5.23268 49.16C5.47268 49.3 5.55268 49.6 5.41268 49.84L5.33268 49.97C5.67268 49.81 6.08268 49.64 6.52268 49.45L7.50268 49.04C7.54268 49.02 7.59268 49 7.63268 48.98C7.60268 48.75 7.61268 48.54 7.64268 48.33C7.69268 48.12 7.75268 47.81 7.90268 47.54ZM7.90268 47.54C7.82268 47.68 7.68268 47.8 7.59268 47.86C7.45268 47.96 7.30268 48.05 7.12268 48.13L6.15268 48.54C5.65268 48.75 5.22268 48.93 4.86268 49.11C4.98268 49.07 5.12268 49.09 5.23268 49.16C5.47268 49.3 5.55268 49.6 5.41268 49.84L5.33268 49.97C5.67268 49.81 6.08268 49.64 6.52268 49.45L7.50268 49.04C7.54268 49.02 7.59268 49 7.63268 48.98C7.60268 48.75 7.61268 48.54 7.64268 48.33C7.69268 48.12 7.75268 47.81 7.90268 47.54ZM7.90268 47.54C7.82268 47.68 7.68268 47.8 7.59268 47.86C7.45268 47.96 7.30268 48.05 7.12268 48.13L6.15268 48.54C5.65268 48.75 5.22268 48.93 4.86268 49.11C4.98268 49.07 5.12268 49.09 5.23268 49.16C5.47268 49.3 5.55268 49.6 5.41268 49.84L5.33268 49.97C5.67268 49.81 6.08268 49.64 6.52268 49.45L7.50268 49.04C7.54268 49.02 7.59268 49 7.63268 48.98C7.60268 48.75 7.61268 48.54 7.64268 48.33C7.69268 48.12 7.75268 47.81 7.90268 47.54ZM7.90268 47.54C7.82268 47.68 7.68268 47.8 7.59268 47.86C7.45268 47.96 7.30268 48.05 7.12268 48.13L6.15268 48.54C5.65268 48.75 5.22268 48.93 4.86268 49.11C4.98268 49.07 5.12268 49.09 5.23268 49.16C5.47268 49.3 5.55268 49.6 5.41268 49.84L5.33268 49.97C5.67268 49.81 6.08268 49.64 6.52268 49.45L7.50268 49.04C7.54268 49.02 7.59268 49 7.63268 48.98C7.60268 48.75 7.61268 48.54 7.64268 48.33C7.69268 48.12 7.75268 47.81 7.90268 47.54Z" fill="black"/>
<path d="M7.9225 47.5102C7.9125 47.5202 7.9125 47.5302 7.9025 47.5402C7.8225 47.6802 7.6825 47.8002 7.5925 47.8602C7.4525 47.9602 7.3025 48.0502 7.1225 48.1302L6.1525 48.5402C5.6525 48.7502 5.2225 48.9302 4.8625 49.1102C4.8325 49.1202 4.8125 49.1302 4.7825 49.1402C4.7625 49.1502 4.7425 49.1602 4.7225 49.1702H4.7125C3.8025 49.5702 3.2825 49.8402 3.0125 50.0002C2.7525 50.1402 2.5325 50.2302 2.3225 50.2702C1.9025 50.3502 1.5825 50.2702 1.3425 50.0302C0.982502 49.6802 0.892502 48.9802 1.1225 48.2402C1.4125 47.3302 2.0425 46.7202 2.9825 46.4202C3.4325 46.2602 3.9125 46.2002 4.3825 46.2002C5.3025 46.2002 6.1725 46.4402 6.8525 46.6802L6.8625 46.6902C7.1325 46.7802 7.3525 46.8802 7.5425 46.9702C7.6325 47.0102 7.7125 47.0502 7.7725 47.0802C7.8625 47.1302 7.9225 47.1902 7.9525 47.2602C7.9725 47.3102 7.9825 47.3902 7.9225 47.5102Z" fill="#BCC1BC"/>
<path d="M7.70246 49.5402L6.90246 49.8702C6.46246 50.0602 6.05246 50.2302 5.71246 50.3902L4.24246 52.8802C4.17246 53.0002 4.14246 53.1202 4.14246 53.2202V55.3402L4.07246 55.3802C3.98246 55.4402 3.90246 55.4502 3.84246 55.4202C3.80246 55.4002 3.77246 55.3202 3.77246 55.2102V52.8102C3.77246 52.7002 3.80246 52.5802 3.87246 52.4702L5.34246 49.9802C5.68246 49.8202 6.09246 49.6502 6.53246 49.4602L7.51246 49.0502C7.55246 49.0302 7.60246 49.0102 7.64246 48.9902C7.64246 49.0402 7.64246 49.0902 7.65246 49.1402C7.67246 49.2702 7.68246 49.4102 7.70246 49.5402Z" fill="#E29F0A"/>
<path d="M7.88281 51.4798L6.42281 53.9698C6.36281 54.0798 6.26281 54.1798 6.17281 54.2298L4.13281 55.3498V53.2298C4.13281 53.1198 4.16281 52.9998 4.23281 52.8898L5.70281 50.3998C6.04281 50.2398 6.45281 50.0698 6.89281 49.8798L7.69281 49.5498C7.71281 49.7698 7.74281 49.9798 7.76281 50.1798C7.81281 50.6598 7.85281 51.0998 7.88281 51.4798Z" fill="#FBB302"/>
<path d="M11.4524 54.2998C10.9324 54.8698 10.2824 55.1298 9.78242 54.9798C9.47242 54.8898 9.24242 54.6398 9.10242 54.2398C9.04242 54.0598 9.00242 53.8198 8.99242 53.5098C8.99242 53.1898 8.97242 52.5998 8.88242 51.5998V51.5498C8.85242 51.1298 8.80242 50.6298 8.74242 50.0498C8.71242 49.7298 8.66242 49.3698 8.62242 49.0098C8.60242 48.7998 8.60242 48.6298 8.62242 48.4698C8.64242 48.3598 8.67242 48.1898 8.74242 48.0698C8.75242 48.0698 8.75242 48.0598 8.75242 48.0598C8.75242 48.0498 8.76242 48.0498 8.76242 48.0398V48.0298C8.83242 47.9098 8.90242 47.8698 9.00242 47.8598C9.07242 47.8498 9.15242 47.8798 9.27242 47.9598L9.45242 48.0898C9.62242 48.1998 9.80242 48.3598 10.0324 48.5398C10.8424 49.2398 11.8724 50.3698 12.1624 51.7898C12.3324 52.7698 12.1024 53.6098 11.4524 54.2998Z" fill="#BCC1BC"/>
<path d="M12.1823 54.9697C11.5623 55.6397 10.7923 56.0097 10.0723 56.0097C9.87227 56.0097 9.69227 55.9797 9.50227 55.9197C9.07227 55.7897 8.48227 55.4597 8.17227 54.5497C8.07227 54.2597 8.02227 53.9497 8.00227 53.5297C8.00227 53.4597 8.00227 53.3597 7.99227 53.2297V53.2197C7.98227 52.8997 7.96227 52.3797 7.90227 51.6197C7.87227 51.3497 8.08227 51.1197 8.35227 51.0897C8.62227 51.0797 8.85227 51.2797 8.87227 51.5397V51.5897C8.96227 52.5897 8.98227 53.1897 8.98227 53.4997C8.99227 53.8097 9.03227 54.0397 9.09227 54.2297C9.23227 54.6197 9.46227 54.8797 9.77227 54.9697C10.2723 55.1197 10.9223 54.8597 11.4423 54.2897C12.0923 53.5997 12.3323 52.7497 12.1423 51.7797C11.8523 50.3597 10.8223 49.2297 10.0123 48.5297C9.80227 48.3497 9.77227 48.0397 9.95227 47.8297C10.1323 47.6197 10.4423 47.5997 10.6523 47.7797C10.7323 47.8497 10.8123 47.9197 10.8923 47.9997C11.7823 48.8097 12.8023 50.0397 13.1123 51.5797C13.4323 53.2197 12.7823 54.3297 12.1823 54.9697Z" fill="black"/>
<path d="M10.1425 46.4501C10.0425 46.4501 9.94249 46.4201 9.85249 46.3501C9.63249 46.1901 9.58249 45.8801 9.75249 45.6601C10.8625 44.1501 12.1025 43.6101 13.1725 44.1701C13.4125 44.3001 13.5025 44.5901 13.3825 44.8301C13.2525 45.0701 12.9625 45.1601 12.7225 45.0401C11.8925 44.6001 10.9225 45.7401 10.5525 46.2401C10.4425 46.3801 10.2925 46.4501 10.1425 46.4501Z" fill="black"/>
<path d="M10.0124 47.2799L9.7824 47.1099C9.4924 46.9199 9.1824 46.8399 8.8624 46.8799V46.8699C8.7324 46.5699 8.5124 46.3399 8.2124 46.1899C8.1324 46.1499 8.0524 46.1099 7.9624 46.0599C8.2824 45.8599 8.6224 45.7599 8.9224 45.7899C8.9624 45.7899 9.0024 45.7999 9.0424 45.7999C9.1824 45.8199 9.3024 45.8699 9.4024 45.9299C9.5324 46.0099 9.6424 46.1099 9.7224 46.2299C9.8624 46.4299 9.9524 46.6599 9.9924 46.9299C10.0124 47.0599 10.0224 47.1699 10.0124 47.2799Z" fill="#5A5B5A"/>
<path d="M9.70255 45.0001C9.64255 45.1701 9.57255 45.3401 9.49255 45.5201C9.41255 45.7101 9.23255 45.8201 9.05255 45.8201C9.01255 45.8201 8.97255 45.8101 8.93255 45.8101C8.90255 45.7901 8.87255 45.7801 8.84255 45.7701C8.59255 45.6601 8.49255 45.3701 8.59255 45.1201C8.63255 45.0401 8.67255 44.9301 8.71255 44.8201C8.98255 44.1601 9.27255 43.0701 8.59255 42.6201C8.36255 42.4701 8.29255 42.1701 8.44255 41.9401C8.60255 41.7101 8.90255 41.6401 9.13255 41.8001C10.0325 42.3901 10.2325 43.5401 9.70255 45.0001Z" fill="black"/>
<path d="M63.3425 13.7398L62.5125 15.9898C62.4225 16.2598 62.2425 16.5098 62.0125 16.7098L60.9025 17.6298L59.6625 18.6398C59.5725 18.7198 59.4525 18.7598 59.3425 18.7598C59.2025 18.7598 59.0525 18.6998 58.9725 18.5798C58.8925 18.4798 58.8525 18.3698 58.8525 18.2598C58.8525 18.1198 58.9125 17.9798 59.0325 17.8898L59.1525 17.7898L61.3925 15.9498C61.4925 15.8698 61.5725 15.7698 61.6025 15.6698L62.3625 13.5798L62.4325 13.3998C62.4725 13.2998 62.4625 13.2198 62.4325 13.1698C62.3925 13.1198 62.3125 13.0998 62.2025 13.1198L59.8325 13.4898C59.7225 13.5098 59.6025 13.5698 59.5125 13.6498L57.2825 15.4798C57.1825 15.8498 57.0725 16.2798 56.9525 16.7598C56.8725 17.0798 56.7925 17.4198 56.7025 17.7798C56.6925 17.8298 56.6725 17.8798 56.6625 17.9198C56.6625 17.9398 56.6525 17.9598 56.6425 17.9698C56.6225 18.0698 56.5925 18.1598 56.5525 18.2398C56.5125 18.3498 56.4725 18.4398 56.4225 18.5298C56.3125 18.7198 56.1525 18.9798 55.9125 19.1798L55.9025 19.1898C55.5725 19.4698 55.1825 19.5498 54.7925 19.4698H54.7825C54.4725 19.3998 54.2125 19.2098 54.0125 18.9398L53.8425 18.6998C53.8025 18.8098 53.7625 18.9198 53.7325 19.0298C53.6725 19.2898 53.6825 19.5398 53.7425 19.7698C53.7825 19.9198 53.8525 20.0598 53.9525 20.1598C54.0325 20.2598 54.1425 20.3498 54.2725 20.4198C54.2825 20.4198 54.2925 20.4298 54.3025 20.4398C54.6025 20.5898 54.9725 20.6198 55.3625 20.5398C55.5925 20.4998 55.8225 20.4198 56.0525 20.2898C56.2525 20.1798 56.4925 20.2298 56.6425 20.3798C56.6725 20.4098 56.7025 20.4498 56.7225 20.4898C56.8525 20.7298 56.7625 21.0198 56.5225 21.1498C56.4225 21.2098 56.3125 21.2598 56.2125 21.2998C55.7925 21.4898 55.3625 21.5798 54.9625 21.5798C54.6925 21.5798 54.4525 21.5398 54.2125 21.4598C54.0825 21.4298 53.9625 21.3798 53.8525 21.3198C53.6625 21.2298 53.5025 21.1098 53.3525 20.9498C53.2925 20.9098 53.2425 20.8498 53.1925 20.7898C53.1425 20.7298 53.0925 20.6698 53.0625 20.5998C52.9425 20.4298 52.8525 20.2598 52.7925 20.0498C52.7525 19.9298 52.7325 19.7898 52.7225 19.6698C52.6825 19.3898 52.7025 19.1098 52.7725 18.8198C52.8625 18.4398 53.0225 18.0598 53.2525 17.7298C53.3125 17.6298 53.3825 17.5398 53.4625 17.4498C53.5625 17.3198 53.7225 17.2598 53.8725 17.2698C54.0425 17.2798 54.1825 17.3798 54.2525 17.5198C54.2625 17.5398 54.2725 17.5598 54.2825 17.5698C54.4225 17.7998 54.5425 17.9898 54.6425 18.1498L54.7725 18.3398C54.8425 18.4498 54.9125 18.4998 54.9925 18.5098C55.0825 18.5298 55.1625 18.5298 55.2725 18.4398L55.2825 18.4298C55.4025 18.3298 55.4925 18.1698 55.5625 18.0698C55.6325 17.9298 55.6925 17.7598 55.7425 17.5698C55.8325 17.2098 55.9125 16.8598 55.9925 16.5498C56.1425 15.9898 56.2725 15.5098 56.3725 15.0898C56.4025 14.9898 56.4525 14.8998 56.5325 14.8398L57.7725 13.8198C57.7725 13.8098 57.7825 13.8098 57.7825 13.8098L58.8825 12.9098C59.1125 12.7198 59.3825 12.5898 59.6725 12.5498L62.0525 12.1798C62.4925 12.1098 62.9225 12.2498 63.1825 12.5598C63.4325 12.8698 63.4925 13.3098 63.3425 13.7398Z" fill="black"/>
<path d="M58.9726 18.5797C58.8926 18.4797 58.8526 18.3697 58.8526 18.2597C58.8526 18.1197 58.9126 17.9797 59.0326 17.8897L59.1526 17.7897C58.7826 17.8197 58.3426 17.8497 57.8526 17.8797L57.1426 17.9097L56.7926 17.9197C56.7426 17.9197 56.7026 17.9297 56.6526 17.9397C56.6526 17.9597 56.6426 17.9797 56.6326 17.9897C56.6126 18.0897 56.5826 18.1797 56.5426 18.2597C56.5026 18.3697 56.4626 18.4597 56.4126 18.5497C56.3026 18.7397 56.1426 18.9997 55.9026 19.1997C56.0226 19.1097 56.2026 19.0397 56.3026 18.9997C56.4626 18.9497 56.6226 18.9197 56.8326 18.9097L57.8926 18.8597C58.4426 18.8297 58.9226 18.7997 59.3426 18.7697C59.2026 18.7597 59.0526 18.6997 58.9726 18.5797ZM58.9726 18.5797C58.8926 18.4797 58.8526 18.3697 58.8526 18.2597C58.8526 18.1197 58.9126 17.9797 59.0326 17.8897L59.1526 17.7897C58.7826 17.8197 58.3426 17.8497 57.8526 17.8797L57.1426 17.9097L56.7926 17.9197C56.7426 17.9197 56.7026 17.9297 56.6526 17.9397C56.6526 17.9597 56.6426 17.9797 56.6326 17.9897C56.6126 18.0897 56.5826 18.1797 56.5426 18.2597C56.5026 18.3697 56.4626 18.4597 56.4126 18.5497C56.3026 18.7397 56.1426 18.9997 55.9026 19.1997C56.0226 19.1097 56.2026 19.0397 56.3026 18.9997C56.4626 18.9497 56.6226 18.9197 56.8326 18.9097L57.8926 18.8597C58.4426 18.8297 58.9226 18.7997 59.3426 18.7697C59.2026 18.7597 59.0526 18.6997 58.9726 18.5797ZM58.9726 18.5797C58.8926 18.4797 58.8526 18.3697 58.8526 18.2597C58.8526 18.1197 58.9126 17.9797 59.0326 17.8897L59.1526 17.7897C58.7826 17.8197 58.3426 17.8497 57.8526 17.8797L57.1426 17.9097L56.7926 17.9197C56.7426 17.9197 56.7026 17.9297 56.6526 17.9397C56.6526 17.9597 56.6426 17.9797 56.6326 17.9897C56.6126 18.0897 56.5826 18.1797 56.5426 18.2597C56.5026 18.3697 56.4626 18.4597 56.4126 18.5497C56.3026 18.7397 56.1426 18.9997 55.9026 19.1997C56.0226 19.1097 56.2026 19.0397 56.3026 18.9997C56.4626 18.9497 56.6226 18.9197 56.8326 18.9097L57.8926 18.8597C58.4426 18.8297 58.9226 18.7997 59.3426 18.7697C59.2026 18.7597 59.0526 18.6997 58.9726 18.5797ZM58.9726 18.5797C58.8926 18.4797 58.8526 18.3697 58.8526 18.2597C58.8526 18.1197 58.9126 17.9797 59.0326 17.8897L59.1526 17.7897C58.7826 17.8197 58.3426 17.8497 57.8526 17.8797L57.1426 17.9097L56.7926 17.9197C56.7426 17.9197 56.7026 17.9297 56.6526 17.9397C56.6526 17.9597 56.6426 17.9797 56.6326 17.9897C56.6126 18.0897 56.5826 18.1797 56.5426 18.2597C56.5026 18.3697 56.4626 18.4597 56.4126 18.5497C56.3026 18.7397 56.1426 18.9997 55.9026 19.1997C56.0226 19.1097 56.2026 19.0397 56.3026 18.9997C56.4626 18.9497 56.6226 18.9197 56.8326 18.9097L57.8926 18.8597C58.4426 18.8297 58.9226 18.7997 59.3426 18.7697C59.2026 18.7597 59.0526 18.6997 58.9726 18.5797ZM58.9726 18.5797C58.8926 18.4797 58.8526 18.3697 58.8526 18.2597C58.8526 18.1197 58.9126 17.9797 59.0326 17.8897L59.1526 17.7897C58.7826 17.8197 58.3426 17.8497 57.8526 17.8797L57.1426 17.9097L56.7926 17.9197C56.7426 17.9197 56.7026 17.9297 56.6526 17.9397C56.6526 17.9597 56.6426 17.9797 56.6326 17.9897C56.6126 18.0897 56.5826 18.1797 56.5426 18.2597C56.5026 18.3697 56.4626 18.4597 56.4126 18.5497C56.3026 18.7397 56.1426 18.9997 55.9026 19.1997C56.0226 19.1097 56.2026 19.0397 56.3026 18.9997C56.4626 18.9497 56.6226 18.9197 56.8326 18.9097L57.8926 18.8597C58.4426 18.8297 58.9226 18.7997 59.3426 18.7697C59.2026 18.7597 59.0526 18.6997 58.9726 18.5797ZM58.9726 18.5797C58.8926 18.4797 58.8526 18.3697 58.8526 18.2597C58.8526 18.1197 58.9126 17.9797 59.0326 17.8897L59.1526 17.7897C58.7826 17.8197 58.3426 17.8497 57.8526 17.8797L57.1426 17.9097L56.7926 17.9197C56.7426 17.9197 56.7026 17.9297 56.6526 17.9397C56.6526 17.9597 56.6426 17.9797 56.6326 17.9897C56.6126 18.0897 56.5826 18.1797 56.5426 18.2597C56.5026 18.3697 56.4626 18.4597 56.4126 18.5497C56.3026 18.7397 56.1426 18.9997 55.9026 19.1997C56.0226 19.1097 56.2026 19.0397 56.3026 18.9997C56.4626 18.9497 56.6226 18.9197 56.8326 18.9097L57.8926 18.8597C58.4426 18.8297 58.9226 18.7997 59.3426 18.7697C59.2026 18.7597 59.0526 18.6997 58.9726 18.5797ZM63.8026 18.6797C63.6026 18.2697 63.1826 17.7297 62.2326 17.5797C61.9226 17.5197 61.5926 17.5197 61.1926 17.5797C61.1226 17.5897 61.0226 17.6097 60.8926 17.6297C60.7026 17.6497 60.4526 17.6797 60.1126 17.7097C59.8826 17.7297 59.6126 17.7597 59.2926 17.7797C59.2426 17.7797 59.1926 17.7897 59.1326 17.7897C58.7626 17.8197 58.3226 17.8497 57.8326 17.8797L57.1226 17.9097L56.7726 17.9197C56.7226 17.9197 56.6826 17.9297 56.6326 17.9397C56.4026 17.9497 56.1926 17.9897 55.9826 18.0597C55.7926 18.1297 55.5026 18.2397 55.2626 18.4297H55.2526V18.4397C54.9226 18.7197 54.7526 19.0597 54.7626 19.4697V19.4797C54.7826 19.7997 54.9126 20.0997 55.1726 20.3897L55.3426 20.5597C55.5026 20.7197 55.6926 20.8997 55.9426 21.1097C56.0226 21.1797 56.1026 21.2497 56.1926 21.3097C57.1426 22.0697 58.5126 22.8897 60.0926 22.9297H60.2526C61.8126 22.9297 62.7626 22.1397 63.2826 21.4697C64.0026 20.5497 64.1926 19.4797 63.8026 18.6797ZM62.5126 20.8497C61.9326 21.5997 61.1326 21.9797 60.1426 21.9297C58.7126 21.8797 57.4526 21.0597 56.6226 20.3697C56.6026 20.3497 56.5926 20.3397 56.5826 20.3297C56.3626 20.1497 56.1926 19.9797 56.0426 19.8297L55.8626 19.6497C55.7926 19.5797 55.7626 19.4997 55.7526 19.4297C55.7526 19.3497 55.7626 19.2697 55.8826 19.1697L55.5726 18.7897L55.8926 19.1597C56.0126 19.0697 56.1926 18.9997 56.2926 18.9597C56.4526 18.9097 56.6126 18.8797 56.8226 18.8697L57.8826 18.8197C58.4326 18.7897 58.9126 18.7597 59.3326 18.7297H59.3726C60.4726 18.6397 61.0726 18.5597 61.3226 18.5197C61.6226 18.4797 61.8626 18.4797 62.0626 18.5097C62.4926 18.5897 62.7626 18.7697 62.9126 19.0697C63.1426 19.5597 62.9826 20.2497 62.5126 20.8497ZM58.9726 18.5797C58.8926 18.4797 58.8526 18.3697 58.8526 18.2597C58.8526 18.1197 58.9126 17.9797 59.0326 17.8897L59.1526 17.7897C58.7826 17.8197 58.3426 17.8497 57.8526 17.8797L57.1426 17.9097L56.7926 17.9197C56.7426 17.9197 56.7026 17.9297 56.6526 17.9397C56.6526 17.9597 56.6426 17.9797 56.6326 17.9897C56.6126 18.0897 56.5826 18.1797 56.5426 18.2597C56.5026 18.3697 56.4626 18.4597 56.4126 18.5497C56.3026 18.7397 56.1426 18.9997 55.9026 19.1997C56.0226 19.1097 56.2026 19.0397 56.3026 18.9997C56.4626 18.9497 56.6226 18.9197 56.8326 18.9097L57.8926 18.8597C58.4426 18.8297 58.9226 18.7997 59.3426 18.7697C59.2026 18.7597 59.0526 18.6997 58.9726 18.5797ZM58.9726 18.5797C58.8926 18.4797 58.8526 18.3697 58.8526 18.2597C58.8526 18.1197 58.9126 17.9797 59.0326 17.8897L59.1526 17.7897C58.7826 17.8197 58.3426 17.8497 57.8526 17.8797L57.1426 17.9097L56.7926 17.9197C56.7426 17.9197 56.7026 17.9297 56.6526 17.9397C56.6526 17.9597 56.6426 17.9797 56.6326 17.9897C56.6126 18.0897 56.5826 18.1797 56.5426 18.2597C56.5026 18.3697 56.4626 18.4597 56.4126 18.5497C56.3026 18.7397 56.1426 18.9997 55.9026 19.1997C56.0226 19.1097 56.2026 19.0397 56.3026 18.9997C56.4626 18.9497 56.6226 18.9197 56.8326 18.9097L57.8926 18.8597C58.4426 18.8297 58.9226 18.7997 59.3426 18.7697C59.2026 18.7597 59.0526 18.6997 58.9726 18.5797ZM58.9726 18.5797C58.8926 18.4797 58.8526 18.3697 58.8526 18.2597C58.8526 18.1197 58.9126 17.9797 59.0326 17.8897L59.1526 17.7897C58.7826 17.8197 58.3426 17.8497 57.8526 17.8797L57.1426 17.9097L56.7926 17.9197C56.7426 17.9197 56.7026 17.9297 56.6526 17.9397C56.6526 17.9597 56.6426 17.9797 56.6326 17.9897C56.6126 18.0897 56.5826 18.1797 56.5426 18.2597C56.5026 18.3697 56.4626 18.4597 56.4126 18.5497C56.3026 18.7397 56.1426 18.9997 55.9026 19.1997C56.0226 19.1097 56.2026 19.0397 56.3026 18.9997C56.4626 18.9497 56.6226 18.9197 56.8326 18.9097L57.8926 18.8597C58.4426 18.8297 58.9226 18.7997 59.3426 18.7697C59.2026 18.7597 59.0526 18.6997 58.9726 18.5797ZM58.9726 18.5797C58.8926 18.4797 58.8526 18.3697 58.8526 18.2597C58.8526 18.1197 58.9126 17.9797 59.0326 17.8897L59.1526 17.7897C58.7826 17.8197 58.3426 17.8497 57.8526 17.8797L57.1426 17.9097L56.7926 17.9197C56.7426 17.9197 56.7026 17.9297 56.6526 17.9397C56.6526 17.9597 56.6426 17.9797 56.6326 17.9897C56.6126 18.0897 56.5826 18.1797 56.5426 18.2597C56.5026 18.3697 56.4626 18.4597 56.4126 18.5497C56.3026 18.7397 56.1426 18.9997 55.9026 19.1997C56.0226 19.1097 56.2026 19.0397 56.3026 18.9997C56.4626 18.9497 56.6226 18.9197 56.8326 18.9097L57.8926 18.8597C58.4426 18.8297 58.9226 18.7997 59.3426 18.7697C59.2026 18.7597 59.0526 18.6997 58.9726 18.5797ZM58.9726 18.5797C58.8926 18.4797 58.8526 18.3697 58.8526 18.2597C58.8526 18.1197 58.9126 17.9797 59.0326 17.8897L59.1526 17.7897C58.7826 17.8197 58.3426 17.8497 57.8526 17.8797L57.1426 17.9097L56.7926 17.9197C56.7426 17.9197 56.7026 17.9297 56.6526 17.9397C56.6526 17.9597 56.6426 17.9797 56.6326 17.9897C56.6126 18.0897 56.5826 18.1797 56.5426 18.2597C56.5026 18.3697 56.4626 18.4597 56.4126 18.5497C56.3026 18.7397 56.1426 18.9997 55.9026 19.1997C56.0226 19.1097 56.2026 19.0397 56.3026 18.9997C56.4626 18.9497 56.6226 18.9197 56.8326 18.9097L57.8926 18.8597C58.4426 18.8297 58.9226 18.7997 59.3426 18.7697C59.2026 18.7597 59.0526 18.6997 58.9726 18.5797Z" fill="black"/>
<path d="M62.4126 13.3997L62.3426 13.5797L60.1826 13.9197C60.0726 13.9397 59.9526 13.9997 59.8626 14.0797L57.6326 15.9097C57.5326 16.2797 57.4226 16.7097 57.3026 17.1897C57.2426 17.4197 57.1926 17.6497 57.1326 17.8997L56.7826 17.9097C56.7326 17.9097 56.6926 17.9197 56.6426 17.9297C56.6526 17.8897 56.6726 17.8397 56.6826 17.7897C56.7726 17.4297 56.8526 17.0797 56.9326 16.7697C57.0626 16.2897 57.1726 15.8597 57.2626 15.4897L59.4926 13.6597C59.5926 13.5797 59.7126 13.5197 59.8126 13.4997L62.1826 13.1297C62.2926 13.1097 62.3726 13.1297 62.4126 13.1797C62.4426 13.2197 62.4526 13.2997 62.4126 13.3997Z" fill="#E29F0A"/>
<path d="M62.3426 13.5796L61.5826 15.6696C61.5526 15.7696 61.4726 15.8696 61.3726 15.9496L59.1326 17.7896C58.7626 17.8196 58.3226 17.8496 57.8326 17.8796L57.1226 17.9096C57.1826 17.6596 57.2326 17.4296 57.2926 17.1996C57.4226 16.7196 57.5326 16.2896 57.6226 15.9196L59.8526 14.0896C59.9526 14.0096 60.0726 13.9496 60.1726 13.9296L62.3426 13.5796Z" fill="#FBB302"/>
<path d="M62.5124 20.8497C61.9324 21.5997 61.1324 21.9797 60.1424 21.9297C58.7124 21.8797 57.4524 21.0597 56.6224 20.3697C56.6024 20.3497 56.5924 20.3397 56.5824 20.3297C56.3624 20.1497 56.1924 19.9797 56.0424 19.8297L55.8624 19.6497C55.7924 19.5797 55.7624 19.4997 55.7524 19.4297C55.7524 19.3497 55.7624 19.2697 55.8824 19.1697L55.8924 19.1597C56.0124 19.0697 56.1924 18.9997 56.2924 18.9597C56.4524 18.9097 56.6124 18.8797 56.8224 18.8697L57.8824 18.8197C58.4324 18.7897 58.9124 18.7597 59.3324 18.7297H59.3724C60.4724 18.6397 61.0724 18.5597 61.3224 18.5197C61.6224 18.4797 61.8624 18.4797 62.0624 18.5097C62.4924 18.5897 62.7624 18.7697 62.9124 19.0697C63.1424 19.5597 62.9824 20.2497 62.5124 20.8497Z" fill="#BCC1BC"/>
<path d="M57.0823 12.4901C57.0823 12.6901 57.0323 12.9101 56.9323 13.2101C56.8223 13.5201 56.6323 14.0901 56.3623 15.0801C56.2523 15.4901 56.1223 15.9801 55.9823 16.5401C55.9023 16.8601 55.8223 17.2001 55.7323 17.5601C55.6823 17.7601 55.6223 17.9201 55.5523 18.0601C55.4823 18.1701 55.3923 18.3301 55.2723 18.4201H55.2623V18.4301C55.1523 18.5201 55.0723 18.5201 54.9823 18.5001C54.9023 18.4901 54.8323 18.4401 54.7623 18.3301L54.6323 18.1401C54.5223 17.9801 54.4023 17.7901 54.2723 17.5601C54.2723 17.5401 54.2623 17.5301 54.2523 17.5101C53.7223 16.5701 53.1423 15.1601 53.3623 13.7301C53.5223 12.7601 54.0223 12.0401 54.8823 11.6001C55.5623 11.2601 56.2723 11.2301 56.6823 11.5401C56.9623 11.7501 57.0823 12.0501 57.0823 12.4901Z" fill="#BCC1BC"/>
<path d="M58.0623 12.51C58.0523 12.9 57.9423 13.28 57.8523 13.52C57.8323 13.59 57.7923 13.68 57.7623 13.8C57.7623 13.8 57.7523 13.8 57.7523 13.81C57.6523 14.12 57.5023 14.61 57.3023 15.35C57.2323 15.61 56.9623 15.76 56.7023 15.69C56.4323 15.61 56.2923 15.35 56.3623 15.08C56.6423 14.09 56.8223 13.51 56.9323 13.21C57.0323 12.91 57.0823 12.69 57.0823 12.49C57.0923 12.06 56.9623 11.75 56.7023 11.55C56.2923 11.23 55.5823 11.26 54.9023 11.61C54.0423 12.04 53.5423 12.76 53.3823 13.74C53.1523 15.17 53.7323 16.59 54.2723 17.52C54.2823 17.54 54.2923 17.55 54.2923 17.57C54.3923 17.8 54.3023 18.07 54.0723 18.19C54.0023 18.24 53.9123 18.26 53.8323 18.26C53.6623 18.26 53.5023 18.17 53.4023 18C53.3523 17.91 53.3023 17.82 53.2523 17.72C52.7023 16.66 52.1623 15.15 52.4023 13.58C52.6723 11.95 53.6523 11.13 54.4423 10.72C55.4723 10.2 56.5723 10.21 57.2923 10.75C57.6523 11.03 58.0823 11.55 58.0623 12.51Z" fill="black"/>
<path d="M51.2322 21.1502C50.6622 21.1502 50.1722 20.9502 49.8022 20.5402C49.6222 20.3402 49.6322 20.0302 49.8322 19.8402C50.0322 19.6602 50.3422 19.6702 50.5322 19.8702C51.1722 20.5702 52.4622 19.8302 52.9822 19.4802C53.2122 19.3302 53.5122 19.3902 53.6622 19.6202C53.8122 19.8502 53.7522 20.1502 53.5222 20.3002C52.6822 20.8702 51.9022 21.1502 51.2322 21.1502Z" fill="black"/>
<path d="M55.3422 20.5402C54.9522 20.6202 54.5722 20.5902 54.2822 20.4402C54.2722 20.4302 54.2622 20.4202 54.2522 20.4202C54.1222 20.3502 54.0122 20.2602 53.9322 20.1602C53.8322 20.0502 53.7622 19.9102 53.7222 19.7702C53.6622 19.5402 53.6522 19.2902 53.7122 19.0302C53.7422 18.9102 53.7822 18.8002 53.8222 18.7002L53.9922 18.9402C54.1922 19.2202 54.4522 19.4002 54.7622 19.4702H54.7722V19.4802C54.7922 19.8002 54.9222 20.1002 55.1822 20.3902L55.3422 20.5402Z" fill="#5A5B5A"/>
<path d="M54.422 21.2302C54.362 21.2902 54.282 21.3702 54.202 21.4602C53.732 21.9802 53.082 22.9202 53.562 23.5702C53.732 23.7902 53.682 24.0902 53.462 24.2602C53.372 24.3302 53.272 24.3602 53.162 24.3602C53.012 24.3602 52.862 24.2902 52.772 24.1602C52.132 23.2902 52.342 22.1402 53.332 20.9502C53.452 20.8102 53.572 20.6702 53.702 20.5402C53.852 20.4002 54.052 20.3602 54.242 20.4302C54.252 20.4302 54.262 20.4402 54.272 20.4502C54.322 20.4702 54.362 20.5002 54.402 20.5402C54.602 20.7202 54.602 21.0302 54.422 21.2302Z" fill="black"/>
<path d="M24.4523 43.3198H21.6823C21.6523 43.3098 21.6123 43.3098 21.5823 43.3098H19.2223C17.9023 43.3098 16.8223 42.2398 16.8223 40.9098C16.8223 40.2698 17.0723 39.6698 17.5523 39.1998C17.5923 39.1498 17.6523 39.0998 17.7723 39.0098C18.1823 38.6898 18.7023 38.5098 19.2323 38.5098H22.0023C21.4723 38.5098 20.9623 38.6898 20.5423 39.0098C20.4223 39.0998 20.3623 39.1498 20.3223 39.1998C19.8423 39.6698 19.5923 40.2698 19.5923 40.9098C19.5923 42.2398 20.6723 43.3098 21.9923 43.3098H24.3523C24.3923 43.3098 24.4323 43.3098 24.4523 43.3198Z" fill="#BF7B02"/>
<path d="M46.7423 40.9098C46.7423 41.5598 46.4923 42.1498 46.0423 42.6098C45.5823 43.0698 44.9923 43.3098 44.3423 43.3098H41.9723C41.9423 43.3098 41.9023 43.3098 41.8723 43.3198H24.4523C24.4223 43.3098 24.3823 43.3098 24.3523 43.3098H21.9923C20.6723 43.3098 19.5923 42.2398 19.5923 40.9098C19.5923 40.2698 19.8423 39.6698 20.3223 39.1998C20.3623 39.1498 20.4223 39.0998 20.5423 39.0098C20.9523 38.6898 21.4723 38.5098 22.0023 38.5098H44.3423C44.8723 38.5098 45.3823 38.6898 45.8123 39.0098C46.3923 39.4598 46.7423 40.1598 46.7423 40.9098Z" fill="#D69100"/>
<path d="M27.7624 46.6798H25.0024C23.0924 46.6798 21.3824 45.6998 20.7524 44.2998H21.5024C21.5324 44.3098 21.5724 44.3098 21.6024 44.3098H23.5324C24.1524 45.6998 25.8524 46.6798 27.7624 46.6798Z" fill="#E8A205"/>
<path d="M42.8322 44.2998C42.6122 44.7898 42.2722 45.2398 41.8122 45.5998C40.9422 46.2998 39.7922 46.6798 38.5722 46.6798H27.7722C25.8622 46.6798 24.1622 45.6998 23.5322 44.3098H41.9822C42.0122 44.3098 42.0522 44.3098 42.0822 44.2998H42.8322Z" fill="#FBB302"/>
<path d="M42.462 43.8199C42.462 44.0599 42.282 44.2499 42.0721 44.2999C42.042 44.3099 42.0021 44.3099 41.9721 44.3099H21.5921C21.5621 44.3099 21.5221 44.3099 21.4921 44.2999C21.2621 44.2499 21.1021 44.0499 21.1021 43.8199C21.1021 43.5399 21.3221 43.3299 21.5921 43.3299H41.9721C42.2421 43.3199 42.462 43.5399 42.462 43.8199Z" fill="black"/>
<path d="M6.82258 3.32961H2.13258C1.86258 3.32961 1.64258 3.10961 1.64258 2.83961C1.64258 2.56961 1.86258 2.34961 2.13258 2.34961H6.82258C7.09258 2.34961 7.31258 2.56961 7.31258 2.83961C7.31258 3.10961 7.09258 3.32961 6.82258 3.32961Z" fill="black"/>
<path d="M4.48268 5.68C4.21268 5.68 3.99268 5.46 3.99268 5.19V0.49C3.99268 0.22 4.21268 0 4.48268 0C4.75268 0 4.97268 0.22 4.97268 0.49V5.18C4.97268 5.46 4.75268 5.68 4.48268 5.68Z" fill="black"/>
</svg>
