<svg width="43" height="43" viewBox="0 0 43 43" fill="none" xmlns="http://www.w3.org/2000/svg">
<circle cx="21.1767" cy="21.1767" r="21.1767" fill="url(#paint0_linear_1_152)"/>
<path d="M26.0158 18.8103C26.0158 20.8105 25.3223 22.7488 24.0534 24.2949C22.7845 25.8411 21.0188 26.8995 19.057 27.2897C17.0953 27.6799 15.0589 27.3778 13.2949 26.4349C11.5309 25.4921 10.1484 23.9667 9.38295 22.1188C8.61752 20.2709 8.5165 18.2147 9.09713 16.3006C9.67775 14.3866 10.9041 12.7331 12.5672 11.6218C14.2303 10.5106 16.2272 10.0104 18.2178 10.2064C20.2083 10.4025 22.0693 11.2827 23.4836 12.697L21.6775 14.5031C20.681 13.5066 19.3699 12.8865 17.9674 12.7484C16.5649 12.6103 15.158 12.9627 13.9862 13.7456C12.8145 14.5285 11.9505 15.6935 11.5414 17.0421C11.1323 18.3907 11.2035 19.8393 11.7428 21.1413C12.2821 22.4433 13.2561 23.518 14.499 24.1823C15.7418 24.8466 17.1765 25.0594 18.5587 24.7845C19.9409 24.5096 21.1849 23.7639 22.0789 22.6745C22.973 21.5852 23.4616 20.2195 23.4616 18.8103H26.0158Z" fill="white"/>
<path d="M15.9148 23.5971C15.8288 21.5988 16.4385 19.6325 17.6398 18.0332C18.8411 16.434 20.5597 15.3008 22.5029 14.8266C24.4461 14.3525 26.4935 14.5668 28.2964 15.433C30.0993 16.2992 31.546 17.7638 32.3902 19.5771C33.2343 21.3905 33.4235 23.4404 32.9257 25.3776C32.4278 27.3148 31.2737 29.0195 29.6599 30.2012C28.046 31.3828 26.0724 31.9684 24.0753 31.858C22.0782 31.7477 20.1811 30.9483 18.7073 29.596L20.4341 27.7139C21.4725 28.6667 22.8091 29.2299 24.2162 29.3077C25.6233 29.3854 27.0138 28.9729 28.1509 28.1403C29.2879 27.3078 30.101 26.1067 30.4518 24.7418C30.8026 23.377 30.6692 21.9327 30.0745 20.6551C29.4798 19.3775 28.4605 18.3456 27.1902 17.7353C25.92 17.125 24.4774 16.974 23.1084 17.3081C21.7393 17.6421 20.5284 18.4406 19.682 19.5673C18.8356 20.6941 18.4061 22.0795 18.4667 23.4874L15.9148 23.5971Z" fill="white"/>
<defs>
<linearGradient id="paint0_linear_1_152" x1="4.48946" y1="8.04714" x2="21.1767" y2="42.3534" gradientUnits="userSpaceOnUse">
<stop stop-color="#FABD61"/>
<stop offset="1" stop-color="#F59855"/>
</linearGradient>
</defs>
</svg>
